<svg width="70" height="48" viewBox="0 0 70 48" fill="none" xmlns="http://www.w3.org/2000/svg">
<path d="M70 0.333313H0V47.3333H70V0.333313Z" fill="#ED5565"/>
<path d="M28.2 0.333313H0V47.3333H28.2V0.333313Z" fill="#57A863"/>
<path fill-rule="evenodd" clip-rule="evenodd" d="M37.3927 31.123C33.843 31.0161 17.5657 20.8559 17.4541 19.2379L18.3529 17.7389C19.9675 20.0849 36.6077 29.966 38.2422 29.6158L37.3926 31.1225" fill="#F6D660"/>
<path d="M37.3927 31.123C33.843 31.0161 17.5657 20.8559 17.4541 19.2379L18.3529 17.7389C19.9675 20.0849 36.6077 29.966 38.2422 29.6158L37.3926 31.1225" stroke="#434A54" stroke-width="0.0673275" stroke-linecap="round" stroke-linejoin="round"/>
<path fill-rule="evenodd" clip-rule="evenodd" d="M18.1636 17.5353C17.8452 18.3923 22.4111 21.2152 27.9047 24.5564C33.3981 27.8974 38.1349 29.9621 38.486 29.666C38.5074 29.6278 38.6587 29.3675 38.6448 29.3695C38.579 29.4687 38.4188 29.5 38.1689 29.428C36.6847 28.9999 32.8138 27.2231 28.0199 24.316C23.2262 21.4087 19.0554 18.7296 18.4071 17.5913C18.3621 17.5124 18.3299 17.3685 18.3365 17.2566L18.3207 17.2563L18.1827 17.4976L18.1637 17.5354L18.1636 17.5353ZM37.4759 31.17C37.4157 31.2792 37.3035 31.2829 37.0903 31.2594C35.7626 31.1125 31.7336 29.1533 26.9663 26.2994C21.4191 22.9789 16.8378 19.9532 17.3348 19.1625L17.4701 18.9234L17.4967 18.9317C17.0498 20.2718 26.5381 25.6971 27.0967 26.043C32.5867 29.4443 37.2152 31.4305 37.6248 30.9144L37.4758 31.1706V31.1704L37.4759 31.17Z" fill="#F6D660" stroke="#434A54" stroke-width="0.0673275" stroke-linecap="round" stroke-linejoin="round"/>
<path fill-rule="evenodd" clip-rule="evenodd" d="M28.2194 20.2178C31.7723 20.1897 36.1565 19.7323 38.6796 18.7268L38.136 17.8435C36.6447 18.6689 32.2363 19.2117 28.1894 19.2929C23.4029 19.2489 20.0243 18.8031 18.3315 17.6673L17.8184 18.6078C20.9302 19.9246 24.119 20.2042 28.2194 20.2178Z" fill="#F6D660" stroke="#434A54" stroke-width="0.0673275" stroke-linecap="round" stroke-linejoin="round"/>
<path fill-rule="evenodd" clip-rule="evenodd" d="M38.8259 18.7467C38.7391 18.8856 37.0936 19.4531 34.6696 19.8718C33.026 20.1224 30.8821 20.3366 28.2066 20.3392C25.6647 20.3416 23.5883 20.1607 22.0162 19.9476C19.4717 19.5486 18.1584 18.9935 17.6729 18.7973C17.7193 18.705 17.7491 18.6402 17.7939 18.554C19.1916 19.1105 20.511 19.446 22.0567 19.6839C23.6184 19.8954 25.6698 20.0789 28.1991 20.0765C30.8621 20.0738 32.9824 19.8433 34.6165 19.6002C37.1022 19.1993 38.46 18.6833 38.6507 18.4437L38.8263 18.7467H38.826H38.8259ZM38.3488 17.8511C38.0794 18.0675 36.737 18.5435 34.3751 18.9207C32.7988 19.1466 30.7946 19.3488 28.234 19.3513C25.8012 19.3537 23.8137 19.1898 22.302 18.9695C19.9033 18.6563 18.6267 18.0912 18.1664 17.9264C18.2122 17.8473 18.2589 17.7687 18.3067 17.6898C18.6649 17.8702 19.8969 18.3703 22.3283 18.7147C23.8229 18.9266 25.8135 19.0846 28.2341 19.0821C30.7827 19.0795 32.7641 18.8734 34.3303 18.6487C36.7044 18.3221 37.9819 17.7149 38.1759 17.5629L38.3489 17.8509L38.3488 17.8511Z" fill="#F6D660" stroke="#434A54" stroke-width="0.0673275" stroke-linecap="round" stroke-linejoin="round"/>
<path fill-rule="evenodd" clip-rule="evenodd" d="M16.5532 24.4984C18.7385 25.6737 23.5921 26.266 28.185 26.3068C32.367 26.3134 37.8151 25.6604 39.8524 24.5807L39.7964 23.4043C39.159 24.4004 33.3206 25.3559 28.1397 25.3168C22.9587 25.2777 18.1477 24.4775 16.5439 23.4416L16.5533 24.4981" fill="#F6D660"/>
<path d="M16.5532 24.4984C18.7385 25.6737 23.5921 26.266 28.185 26.3068C32.367 26.3134 37.8151 25.6604 39.8524 24.5807L39.7964 23.4043C39.159 24.4004 33.3206 25.3559 28.1397 25.3168C22.9587 25.2777 18.1477 24.4775 16.5439 23.4416L16.5533 24.4981" stroke="#434A54" stroke-width="0.0673275" stroke-linecap="round" stroke-linejoin="round"/>
<path fill-rule="evenodd" clip-rule="evenodd" d="M39.9636 24.3292L39.9637 24.6097C39.6575 24.9758 37.7375 25.5292 35.3298 25.9189C33.4974 26.1998 31.1084 26.4117 28.1315 26.4117C25.3034 26.4117 23.0481 26.2101 21.2991 25.9416C18.5345 25.539 16.7661 24.834 16.4111 24.6236L16.4127 24.2963C17.479 25.0052 20.3679 25.5238 21.3379 25.6826C23.0755 25.9493 25.3174 26.1494 28.1314 26.1494C31.0943 26.1494 33.4699 25.939 35.2908 25.6599C37.0182 25.4104 39.479 24.7614 39.9634 24.3293L39.9636 24.3292ZM39.9647 23.3314L39.9648 23.6119C39.6586 23.9778 37.7387 24.5312 35.331 24.9208C33.4986 25.2018 31.1096 25.4137 28.1327 25.4137C25.3046 25.4137 23.0493 25.2122 21.3003 24.9435C18.5357 24.5411 16.7673 23.8361 16.4123 23.6256L16.4139 23.2984C17.4801 24.0072 20.369 24.5259 21.3391 24.6844C23.0767 24.9513 25.3186 25.1516 28.1326 25.1516C31.0955 25.1516 33.4711 24.941 35.292 24.6617C37.0194 24.4122 39.4802 23.7632 39.9646 23.3311L39.9647 23.3314Z" fill="#F6D660" stroke="#434A54" stroke-width="0.0673275" stroke-linecap="round" stroke-linejoin="round"/>
<path fill-rule="evenodd" clip-rule="evenodd" d="M28.1749 30.9209C23.1492 30.891 18.8429 29.551 17.9336 29.3295L18.5967 30.3675C20.2029 31.0432 24.404 32.0501 28.2231 31.9386C32.0423 31.8272 35.38 31.5314 37.7321 30.3863L38.412 29.3106C36.8091 30.0655 31.3541 30.9132 28.1749 30.9209Z" fill="#F6D660" stroke="#434A54" stroke-width="0.0673275" stroke-linecap="round" stroke-linejoin="round"/>
<path fill-rule="evenodd" clip-rule="evenodd" d="M37.9874 30.1454C37.8875 30.2981 37.7856 30.4489 37.6823 30.5954C36.5729 30.9866 34.8248 31.3973 34.0872 31.5171C32.5803 31.8275 30.249 32.0569 28.18 32.0579C23.7279 31.9927 20.0836 31.1212 18.3692 30.3778L18.2308 30.1399L18.2534 30.1042L18.488 30.1952C21.5369 31.286 24.9612 31.7211 28.2051 31.7993C30.2658 31.8065 32.3287 31.5631 33.9969 31.2648C36.555 30.7522 37.5893 30.3659 37.9067 30.1907L37.9874 30.1454ZM38.5769 29.1731C38.5795 29.1761 38.5821 29.179 38.5846 29.1822C38.5099 29.3083 38.4329 29.4366 38.354 29.5655C37.7623 29.777 36.1565 30.2469 33.8116 30.5748C32.2666 30.7852 31.3062 30.9891 28.2328 31.0488C22.4735 30.9022 18.7447 29.7761 17.8588 29.4983L17.7275 29.2465C21.0652 30.1178 24.4746 30.7261 28.233 30.7883C31.0449 30.7284 32.2411 30.5213 33.7733 30.3124C36.5077 29.8872 37.8854 29.437 38.2988 29.3071C38.2937 29.2996 38.2876 29.2917 38.2807 29.2837L38.5772 29.1729L38.5769 29.1731Z" fill="#F6D660" stroke="#434A54" stroke-width="0.064625" stroke-linecap="round" stroke-linejoin="round"/>
<path fill-rule="evenodd" clip-rule="evenodd" d="M38.6371 23.5701C38.6534 26.8762 36.9616 29.843 35.5988 31.1518C33.6708 33.0035 31.1146 34.1946 28.1294 34.2494C24.796 34.3107 21.6528 32.1375 20.8098 31.1828C19.1615 29.3163 17.8195 26.9461 17.7765 23.7518C17.9807 20.1435 19.3972 17.63 21.4505 15.9064C23.5038 14.1828 26.2378 13.3434 28.5147 13.4034C31.1418 13.4727 34.2105 14.7615 36.3309 17.3199C37.7201 18.9962 38.3217 20.8153 38.6371 23.5701ZM28.1577 12.2499C34.5597 12.2499 39.825 17.4596 39.825 23.8475C39.825 30.2353 34.5597 35.4452 28.1577 35.4452C21.7558 35.4452 16.5342 30.2354 16.5342 23.8475C16.5342 17.4596 21.7558 12.2499 28.1577 12.2499Z" fill="#F6D660" stroke="#434A54" stroke-width="0.0673275" stroke-linecap="round" stroke-linejoin="round"/>
<path fill-rule="evenodd" clip-rule="evenodd" d="M28.1895 12.2102C34.5972 12.2102 39.8232 17.437 39.8232 23.8453C39.8232 30.2535 34.5971 35.4802 28.1895 35.4802C21.7817 35.4802 16.5557 30.2536 16.5557 23.8453C16.5557 17.437 21.7818 12.2102 28.1895 12.2102ZM16.8117 23.8454C16.8117 30.1034 21.9507 35.2243 28.1895 35.2243C34.4284 35.2243 39.5673 30.1034 39.5673 23.8454C39.5673 17.5871 34.4282 12.4662 28.1895 12.4662C21.9507 12.4662 16.8117 17.5873 16.8117 23.8454Z" fill="#F6D660" stroke="#434A54" stroke-width="0.0673275" stroke-linecap="round" stroke-linejoin="round"/>
<path fill-rule="evenodd" clip-rule="evenodd" d="M28.1984 13.1772C34.0418 13.1772 38.8548 17.9737 38.8548 23.835C38.8548 29.6963 34.0417 34.4926 28.1984 34.4926C22.3551 34.4926 17.542 29.6963 17.542 23.835C17.542 17.9737 22.3553 13.1772 28.1984 13.1772ZM17.7979 23.8349C17.7979 29.5554 22.4954 34.2365 28.1984 34.2365C33.9014 34.2365 38.5989 29.5554 38.5989 23.8349C38.5989 18.1143 33.9015 13.4332 28.1984 13.4332C22.4954 13.4332 17.7979 18.1143 17.7979 23.8349Z" fill="#F6D660" stroke="#434A54" stroke-width="0.0673275" stroke-linecap="round" stroke-linejoin="round"/>
<path fill-rule="evenodd" clip-rule="evenodd" d="M28.667 12.1632H27.6699L27.6711 35.541H28.6716L28.667 12.1632Z" fill="#F6D660" stroke="#434A54" stroke-width="0.0673275" stroke-linecap="round" stroke-linejoin="round"/>
<path fill-rule="evenodd" clip-rule="evenodd" d="M28.5676 12.03H28.8214L28.8236 35.6768H28.5696L28.5676 12.03ZM27.5781 12.0302H27.8339L27.8342 35.6771H27.5783V12.0302H27.5781Z" fill="#F6D660" stroke="#434A54" stroke-width="0.0673275" stroke-linecap="round" stroke-linejoin="round"/>
<path fill-rule="evenodd" clip-rule="evenodd" d="M39.831 24.2957V23.4314L39.1271 22.7758L35.1321 21.7183L29.3746 21.1308L22.4421 21.4833L17.5071 22.6583L16.5107 23.3962V24.2606L19.0346 23.1283L25.0271 22.1883H30.7846L35.0146 22.6583L37.9521 23.3633L39.831 24.2957Z" fill="#F6D660" stroke="#434A54" stroke-width="0.0673275" stroke-linecap="round" stroke-linejoin="round"/>
<path fill-rule="evenodd" clip-rule="evenodd" d="M28.1938 22.0438C30.9413 22.0387 33.607 22.3041 35.7214 22.7158C37.9033 23.152 39.4387 23.6976 39.9637 24.3104L39.9631 24.6138C39.33 23.8512 37.2638 23.2922 35.6723 22.9726C33.574 22.5644 30.9261 22.3009 28.1938 22.3059C25.3105 22.3113 22.6258 22.5844 20.5581 22.9878C18.899 23.317 16.6864 23.971 16.4102 24.6161V24.3002C16.5619 23.8536 18.2094 23.1864 20.5208 22.7237C22.6039 22.3175 25.2936 22.0491 28.1938 22.0438ZM28.1949 21.046C30.9424 21.041 33.6082 21.3065 35.7226 21.718C37.9044 22.1544 39.4399 22.6998 39.9649 23.3126L39.9643 23.616C39.3312 22.8536 37.265 22.2945 35.6735 21.975C33.5751 21.5666 30.9273 21.3031 28.1949 21.3083C25.3117 21.3135 22.64 21.5868 20.5721 21.99C18.9711 22.2935 16.6681 22.9734 16.4112 23.6186V23.3024C16.5629 22.8607 18.2439 22.1695 20.522 21.7259C22.6051 21.3197 25.2948 21.0514 28.1949 21.046Z" fill="#F6D660" stroke="#434A54" stroke-width="0.0673275" stroke-linecap="round" stroke-linejoin="round"/>
<path fill-rule="evenodd" clip-rule="evenodd" d="M28.1385 15.9561C32.4683 15.9345 36.2449 16.5615 37.9727 17.4466L38.6029 18.5369C37.1012 17.7276 33.0269 16.886 28.1449 17.0119C24.167 17.0363 19.9167 17.4498 17.7842 18.5875L18.5366 17.3292C20.2868 16.4216 24.4142 15.9612 28.1387 15.9564" fill="#F6D660"/>
<path d="M28.1385 15.9561C32.4683 15.9345 36.2449 16.5615 37.9727 17.4466L38.6029 18.5369C37.1012 17.7276 33.0269 16.886 28.1449 17.0119C24.167 17.0363 19.9167 17.4498 17.7842 18.5875L18.5366 17.3292C20.2868 16.4216 24.4142 15.9612 28.1387 15.9564" stroke="#434A54" stroke-width="0.0673275" stroke-linecap="round" stroke-linejoin="round"/>
<path fill-rule="evenodd" clip-rule="evenodd" d="M28.1962 16.8562C30.6657 16.8497 33.0519 16.9889 34.9496 17.3313C36.7169 17.6602 38.4023 18.1539 38.6433 18.4194L38.8302 18.7496C38.2441 18.3669 36.7856 17.9408 34.9128 17.5856C33.0321 17.2322 30.6476 17.1151 28.1918 17.1215C25.4045 17.1119 23.239 17.2591 21.3805 17.5831C19.415 17.9509 18.0512 18.4763 17.7148 18.726L17.8979 18.3769C18.5516 18.0435 19.5888 17.6415 21.3316 17.3277C23.2536 16.9766 25.4421 16.8713 28.1963 16.8562L28.1962 16.8562ZM28.1951 15.8593C30.5584 15.8531 32.8918 15.9848 34.7107 16.3117C36.1453 16.591 37.564 17.027 38.0835 17.415L38.3567 17.8492C37.8922 17.3328 36.1435 16.8434 34.5998 16.5694C32.7949 16.2581 30.5584 16.1348 28.1951 16.1151C25.7149 16.1221 23.4228 16.274 21.6442 16.5978C19.9474 16.9208 18.8524 17.303 18.3891 17.6016L18.6294 17.2389C19.2688 16.9023 20.3017 16.5932 21.6025 16.3404C23.3943 16.0142 25.7004 15.8662 28.1951 15.8593Z" fill="#F6D660" stroke="#434A54" stroke-width="0.0673275" stroke-linecap="round" stroke-linejoin="round"/>
<path fill-rule="evenodd" clip-rule="evenodd" d="M33.9752 28.6814C31.8345 28.2818 29.69 28.2238 28.1922 28.2414C20.9768 28.3259 18.646 29.7229 18.3615 30.1459L17.8223 29.2669C19.6593 27.9354 23.5883 27.1886 28.2312 27.265C30.6421 27.3045 32.7226 27.4646 34.4727 27.8036L33.975 28.6816" fill="#F6D660"/>
<path d="M33.9752 28.6814C31.8345 28.2818 29.69 28.2238 28.1922 28.2414C20.9768 28.3259 18.646 29.7229 18.3615 30.1459L17.8223 29.2669C19.6593 27.9354 23.5883 27.1886 28.2312 27.265C30.6421 27.3045 32.7226 27.4646 34.4727 27.8036L33.975 28.6816" stroke="#434A54" stroke-width="0.0673275" stroke-linecap="round" stroke-linejoin="round"/>
<path fill-rule="evenodd" clip-rule="evenodd" d="M28.15 28.1174C30.1571 28.1473 32.1273 28.2302 34.0289 28.5848L33.8912 28.8279C32.125 28.5019 30.2422 28.3772 28.1568 28.3873C25.4939 28.3665 22.8006 28.6152 20.4558 29.2882C19.7159 29.4941 18.491 29.9697 18.3661 30.3628L18.2291 30.1369C18.2686 29.9046 19.0089 29.4224 20.3928 29.0336C23.0786 28.2644 25.5909 28.1348 28.15 28.1172L28.15 28.1174ZM28.2411 27.1073C30.3206 27.1462 32.4681 27.2423 34.5555 27.6558L34.4121 27.9089C32.5272 27.5347 30.7263 27.4099 28.2534 27.3719C25.582 27.3767 22.7484 27.5672 20.1719 28.3162C19.3401 28.5585 17.9045 29.0824 17.8567 29.4971L17.7197 29.2544C17.7509 28.8777 18.9937 28.3863 20.1118 28.0611C22.7081 27.3063 25.549 27.1122 28.2411 27.1073Z" fill="#F6D660" stroke="#434A54" stroke-width="0.064625" stroke-linecap="round" stroke-linejoin="round"/>
<path fill-rule="evenodd" clip-rule="evenodd" d="M38.4905 29.4005L37.6235 30.7457L35.1324 28.5333L28.6699 24.1858L21.3849 20.1908L17.6025 18.8972L18.4086 17.4026L18.6824 17.2533L21.0324 17.8408L28.7874 21.8358L33.2524 24.6558L37.0124 27.3583L38.5399 29.1208L38.4905 29.4005Z" fill="#F6D660" stroke="#434A54" stroke-width="0.0673275" stroke-linecap="round" stroke-linejoin="round"/>
<path fill-rule="evenodd" clip-rule="evenodd" d="M17.4659 18.9324C18.1293 18.4824 23.0047 20.6544 28.1061 23.7304C33.1939 26.8152 38.0556 30.3011 37.6167 30.9535L37.4724 31.1805L37.4062 31.2327C37.4204 31.2226 37.4935 31.1332 37.399 30.8913C37.1823 30.178 33.7336 27.4261 28.0115 23.9711C22.4332 20.6448 17.7842 18.64 17.3193 19.2131L17.4659 18.9324ZM38.6676 29.3813C39.087 28.5527 34.5649 25.1461 28.9583 21.8294C23.2228 18.5786 19.089 16.6651 18.3339 17.2357L18.1662 17.5411C18.1647 17.5579 18.1723 17.5203 18.2077 17.4929C18.345 17.3731 18.5726 17.3812 18.6753 17.3793C19.9754 17.3988 23.6887 19.1076 28.8985 22.0944C31.1813 23.4239 38.5418 28.1446 38.5137 29.4721C38.5157 29.5862 38.5232 29.6097 38.4803 29.6662L38.6676 29.3813Z" fill="#F6D660"/>
<path d="M38.6676 29.3813C39.087 28.5527 34.5649 25.1461 28.9583 21.8294C23.2228 18.5786 19.089 16.6651 18.3339 17.2357L18.1662 17.5411C18.1647 17.5579 18.1723 17.5203 18.2077 17.4929C18.345 17.3731 18.5726 17.3812 18.6753 17.3793C19.9754 17.3988 23.6887 19.1076 28.8985 22.0944C31.1813 23.4239 38.5418 28.1446 38.5137 29.4721C38.5157 29.5862 38.5232 29.6097 38.4803 29.6662L38.6676 29.3813ZM38.6676 29.3813L38.6675 29.3812M17.4659 18.9324C18.1293 18.4824 23.0047 20.6544 28.1061 23.7304C33.1939 26.8152 38.0556 30.3011 37.6167 30.9535L37.4724 31.1805L37.4062 31.2327C37.4204 31.2226 37.4935 31.1332 37.399 30.8913C37.1823 30.178 33.7336 27.4261 28.0115 23.9711C22.4332 20.6448 17.7842 18.64 17.3193 19.2131L17.4659 18.9324Z" stroke="#434A54" stroke-width="0.0673275" stroke-linecap="round" stroke-linejoin="round"/>
<path d="M21.2204 25.127C21.2204 27.0388 22.0033 28.7679 23.2716 30.0317C24.5424 31.2981 26.2693 32.0972 28.1841 32.0972C30.1089 32.0972 31.8557 31.3155 33.121 30.054C34.3864 28.7926 35.1706 27.0516 35.1709 25.1331H35.1707V15.8284L21.2188 15.8118L21.2202 25.127L21.2204 25.127Z" fill="#F5F7FA" stroke="#434A54" stroke-width="0.0787685"/>
<path d="M21.4816 25.1399V25.1452C21.4816 26.9731 22.2385 28.6378 23.4527 29.8462C24.6693 31.0571 26.3449 31.8099 28.1779 31.8099C30.0204 31.8099 31.6925 31.0625 32.9039 29.8563C34.1151 28.6502 34.8658 26.9855 34.8661 25.1512H34.8658V16.1241L21.4896 16.1219L21.4814 25.1398M32.1765 18.8246L32.177 24.5693L32.1721 25.1769C32.1721 25.3368 32.1626 25.5191 32.1439 25.6743C32.0352 26.5825 31.6175 27.3742 30.9989 27.99C30.2747 28.711 29.2751 29.1581 28.1734 29.1581C27.0775 29.1581 26.1008 28.6954 25.3735 27.9714C24.6274 27.2288 24.1949 26.2105 24.1949 25.1576L24.1934 18.8099L32.1763 18.8243L32.1765 18.8246Z" fill="#ED5565"/>
<path d="M21.4816 25.1399V25.1452C21.4816 26.9731 22.2385 28.6378 23.4527 29.8462C24.6693 31.0571 26.3449 31.8099 28.1779 31.8099C30.0204 31.8099 31.6925 31.0625 32.9039 29.8563C34.1151 28.6502 34.8658 26.9855 34.8661 25.1512H34.8658V16.1241L21.4896 16.1219L21.4814 25.1398M32.1765 18.8246L32.177 24.5693L32.1721 25.1769C32.1721 25.3368 32.1626 25.5191 32.1439 25.6743C32.0352 26.5825 31.6175 27.3742 30.9989 27.99C30.2747 28.711 29.2751 29.1581 28.1734 29.1581C27.0775 29.1581 26.1008 28.6954 25.3735 27.9714C24.6274 27.2288 24.1949 26.2105 24.1949 25.1576L24.1934 18.8099L32.1763 18.8243L32.1765 18.8246Z" stroke="#434A54" stroke-width="0.0596124"/>
<path d="M22.3467 18.4788C22.3625 17.8301 22.8228 17.6765 22.8261 17.6743C22.8295 17.6721 23.3233 17.8397 23.3217 18.4848L22.3467 18.4788Z" fill="#F6D660" stroke="#434A54" stroke-width="0.05875"/>
<path d="M21.9502 17.6869L21.8701 18.4324L22.3566 18.4334C22.3613 17.8166 22.8236 17.714 22.8348 17.7163C22.8452 17.7157 23.3035 17.8527 23.3157 18.4334H23.8034L23.7153 17.6822L21.9503 17.6867L21.9502 17.6869Z" fill="#F6D660" stroke="#434A54" stroke-width="0.05875"/>
<path d="M21.837 18.4354H23.8282C23.8701 18.4354 23.9044 18.4768 23.9044 18.5275C23.9044 18.5781 23.8701 18.6193 23.8282 18.6193H21.837C21.795 18.6193 21.7607 18.5781 21.7607 18.5275C21.7607 18.4768 21.795 18.4354 21.837 18.4354Z" fill="#F6D660" stroke="#434A54" stroke-width="0.05875"/>
<path d="M22.5605 18.4318C22.5627 18.0426 22.8263 17.9324 22.8277 17.9326C22.8278 17.9326 23.1029 18.0462 23.1051 18.4318H22.5605Z" fill="#F6D660" stroke="#434A54" stroke-width="0.05875"/>
<path d="M21.8788 17.3767H23.7876C23.8278 17.3767 23.8608 17.4141 23.8608 17.4595C23.8608 17.505 23.8278 17.5423 23.7876 17.5423H21.8788C21.8386 17.5423 21.8057 17.5052 21.8057 17.4595C21.8057 17.4141 21.8386 17.3767 21.8788 17.3767Z" fill="#F6D660" stroke="#434A54" stroke-width="0.05875"/>
<path d="M21.9196 17.5435H23.7453C23.7837 17.5435 23.8152 17.5807 23.8152 17.6262C23.8152 17.6718 23.7837 17.709 23.7453 17.709H21.9196C21.8811 17.709 21.8496 17.6718 21.8496 17.6262C21.8496 17.5807 21.8811 17.5435 21.9196 17.5435Z" fill="#F6D660" stroke="#434A54" stroke-width="0.05875"/>
<path d="M22.509 16.2992L22.6531 16.2994V16.4018H22.7583V16.2971L22.9059 16.2976V16.4019H23.0114V16.2972H23.1592L23.159 16.5336C23.159 16.5707 23.1291 16.5947 23.0945 16.5947H22.5762C22.5414 16.5947 22.5092 16.5668 22.5091 16.5329L22.5088 16.2993L22.509 16.2992Z" fill="#F6D660" stroke="#434A54" stroke-width="0.05875"/>
<path d="M23.0521 16.6153L23.0847 17.3733L22.5791 17.3714L22.6126 16.6133L23.0521 16.6153Z" fill="#F6D660" stroke="#434A54" stroke-width="0.05875"/>
<path d="M22.4351 16.9666L22.4506 17.3752L21.9658 17.3754L21.9795 16.9666L22.4351 16.9666Z" fill="#F6D660" stroke="#434A54" stroke-width="0.05875"/>
<path d="M23.6812 16.9666L23.6967 17.3752L23.2119 17.3754L23.2256 16.9666L23.6812 16.9666Z" fill="#F6D660" stroke="#434A54" stroke-width="0.05875"/>
<path d="M21.8898 16.6705L22.0308 16.6708V16.7733H22.1339V16.6685L22.2783 16.6689V16.7734H22.3816V16.6685L22.5262 16.6687L22.5259 16.9051C22.5259 16.942 22.4967 16.9661 22.4629 16.9661H21.9557C21.9217 16.9661 21.8901 16.9384 21.89 16.9043L21.8896 16.6706L21.8898 16.6705Z" fill="#F6D660" stroke="#434A54" stroke-width="0.05875"/>
<path d="M23.1369 16.6705L23.2778 16.6708V16.7733H23.3809V16.6685L23.5254 16.6689V16.7734H23.6287V16.6685L23.7732 16.6687L23.773 16.9051C23.773 16.942 23.7438 16.9661 23.71 16.9661H23.2028C23.1688 16.9661 23.1372 16.9384 23.1371 16.9043L23.1367 16.6706L23.1369 16.6705Z" fill="#F6D660" stroke="#434A54" stroke-width="0.05875"/>
<path d="M22.7833 16.855C22.7802 16.7813 22.8863 16.7805 22.885 16.855V17.0355H22.7833L22.7833 16.855Z" fill="#434A54"/>
<path d="M22.1563 17.117C22.1559 17.0458 22.2546 17.0444 22.2533 17.117V17.2565H22.1563L22.1563 17.117Z" fill="#434A54"/>
<path d="M23.4072 17.117C23.4069 17.0458 23.5056 17.0444 23.5043 17.117V17.2565H23.4073L23.4072 17.117Z" fill="#434A54"/>
<path d="M22.3467 23.9214C22.3625 23.2727 22.8228 23.1191 22.8261 23.1168C22.8295 23.1147 23.3233 23.2822 23.3217 23.9274L22.3467 23.9214Z" fill="#F6D660" stroke="#434A54" stroke-width="0.05875"/>
<path d="M21.9502 23.1295L21.8701 23.875L22.3566 23.876C22.3613 23.2592 22.8236 23.1566 22.8348 23.1589C22.8452 23.1583 23.3035 23.2953 23.3157 23.876H23.8034L23.7153 23.1248L21.9503 23.1293L21.9502 23.1295Z" fill="#F6D660" stroke="#434A54" stroke-width="0.05875"/>
<path d="M21.837 23.8779H23.8282C23.8701 23.8779 23.9044 23.9194 23.9044 23.9701C23.9044 24.0206 23.8701 24.0619 23.8282 24.0619H21.837C21.795 24.0619 21.7607 24.0206 21.7607 23.9701C21.7607 23.9194 21.795 23.8779 21.837 23.8779Z" fill="#F6D660" stroke="#434A54" stroke-width="0.05875"/>
<path d="M22.5605 23.8744C22.5627 23.4852 22.8263 23.375 22.8277 23.3752C22.8278 23.3752 23.1029 23.4888 23.1051 23.8744H22.5605Z" fill="#F6D660" stroke="#434A54" stroke-width="0.05875"/>
<path d="M21.8788 22.8193H23.7876C23.8278 22.8193 23.8608 22.8567 23.8608 22.9021C23.8608 22.9476 23.8278 22.9849 23.7876 22.9849H21.8788C21.8386 22.9849 21.8057 22.9478 21.8057 22.9021C21.8057 22.8567 21.8386 22.8193 21.8788 22.8193Z" fill="#F6D660" stroke="#434A54" stroke-width="0.05875"/>
<path d="M21.9196 22.9861H23.7453C23.7837 22.9861 23.8152 23.0233 23.8152 23.0688C23.8152 23.1144 23.7837 23.1516 23.7453 23.1516H21.9196C21.8811 23.1516 21.8496 23.1144 21.8496 23.0688C21.8496 23.0233 21.8811 22.9861 21.9196 22.9861Z" fill="#F6D660" stroke="#434A54" stroke-width="0.05875"/>
<path d="M22.509 21.7418L22.6531 21.742V21.8444H22.7583V21.7397L22.9059 21.7402V21.8445H23.0114V21.7398H23.1592L23.159 21.9762C23.159 22.0133 23.1291 22.0373 23.0945 22.0373H22.5762C22.5414 22.0373 22.5092 22.0094 22.5091 21.9755L22.5088 21.7419L22.509 21.7418Z" fill="#F6D660" stroke="#434A54" stroke-width="0.05875"/>
<path d="M23.0521 22.0579L23.0847 22.8159L22.5791 22.814L22.6126 22.0559L23.0521 22.0579Z" fill="#F6D660" stroke="#434A54" stroke-width="0.05875"/>
<path d="M22.4351 22.4092L22.4506 22.8178L21.9658 22.818L21.9795 22.4092L22.4351 22.4092Z" fill="#F6D660" stroke="#434A54" stroke-width="0.05875"/>
<path d="M23.6812 22.4092L23.6967 22.8178L23.2119 22.818L23.2256 22.4092L23.6812 22.4092Z" fill="#F6D660" stroke="#434A54" stroke-width="0.05875"/>
<path d="M21.8898 22.1131L22.0308 22.1134V22.2159H22.1339V22.1111L22.2783 22.1115V22.216H22.3816V22.1111L22.5262 22.1113L22.5259 22.3477C22.5259 22.3846 22.4967 22.4087 22.4629 22.4087H21.9557C21.9217 22.4087 21.8901 22.381 21.89 22.3469L21.8896 22.1132L21.8898 22.1131Z" fill="#F6D660" stroke="#434A54" stroke-width="0.05875"/>
<path d="M23.1369 22.1131L23.2778 22.1134V22.2159H23.3809V22.1111L23.5254 22.1115V22.216H23.6287V22.1111L23.7732 22.1113L23.773 22.3477C23.773 22.3846 23.7438 22.4087 23.71 22.4087H23.2028C23.1688 22.4087 23.1372 22.381 23.1371 22.3469L23.1367 22.1132L23.1369 22.1131Z" fill="#F6D660" stroke="#434A54" stroke-width="0.05875"/>
<path d="M22.7833 22.2976C22.7802 22.2239 22.8863 22.2231 22.885 22.2976V22.4781H22.7833L22.7833 22.2976Z" fill="#434A54"/>
<path d="M22.1563 22.5596C22.1559 22.4884 22.2546 22.4869 22.2533 22.5596V22.6991H22.1563L22.1563 22.5596Z" fill="#434A54"/>
<path d="M23.4072 22.5596C23.4069 22.4884 23.5056 22.4869 23.5043 22.5596V22.6991H23.4073L23.4072 22.5596Z" fill="#434A54"/>
<path d="M24.4694 29.5865C24.0202 29.1182 24.2356 28.6833 24.2363 28.6794C24.2371 28.6755 24.704 28.4431 25.1606 28.8989L24.4694 29.5865Z" fill="#F6D660" stroke="#434A54" stroke-width="0.05875"/>
<path d="M23.6271 29.3103L24.0997 29.8925L24.4432 29.548C24.0089 29.1101 24.2618 28.7098 24.2713 28.7034C24.2782 28.6956 24.6983 28.4669 25.119 28.8675L25.4627 28.5213L24.8675 28.0545L23.627 29.3102L23.6271 29.3103Z" fill="#F6D660" stroke="#434A54" stroke-width="0.05875"/>
<path d="M24.0791 29.9177L25.4821 28.5048C25.5117 28.475 25.5653 28.4799 25.6012 28.5156C25.6371 28.5513 25.6422 28.6047 25.6126 28.6344L24.2097 30.0473C24.1801 30.0771 24.1266 30.0724 24.0908 30.0368C24.0548 30.0011 24.0496 29.9475 24.0791 29.9177Z" fill="#F6D660" stroke="#434A54" stroke-width="0.05875"/>
<path d="M24.5866 29.4017C24.312 29.1259 24.4196 28.8612 24.4207 28.8604C24.4207 28.8603 24.6952 28.7451 24.9703 29.0153L24.5866 29.4017Z" fill="#F6D660" stroke="#434A54" stroke-width="0.05875"/>
<path d="M23.3572 29.1418L24.7022 27.7873C24.7305 27.7588 24.7803 27.7618 24.8125 27.7938C24.8447 27.8258 24.848 27.8755 24.8197 27.904L23.4747 29.2585C23.4464 29.287 23.3968 29.2843 23.3644 29.2521C23.3322 29.2201 23.3289 29.1703 23.3572 29.1418Z" fill="#F6D660" stroke="#434A54" stroke-width="0.05875"/>
<path d="M23.5044 29.231L24.7908 27.9355C24.8179 27.9082 24.8665 27.9121 24.8987 27.9441C24.9311 27.9763 24.9353 28.0248 24.9082 28.0521L23.6218 29.3476C23.5947 29.3749 23.5461 29.3711 23.5138 29.3389C23.4815 29.3069 23.4773 29.2583 23.5044 29.231Z" fill="#F6D660" stroke="#434A54" stroke-width="0.05875"/>
<path d="M23.0367 27.9357L23.1385 27.8336L23.2111 27.9057L23.2852 27.8311L23.211 27.7573L23.3153 27.6529L23.3893 27.7263L23.4636 27.6515L23.3894 27.5777L23.4935 27.4729L23.661 27.6396C23.6874 27.6657 23.6834 27.7039 23.659 27.7284L23.2938 28.0962C23.2693 28.1209 23.2269 28.1241 23.2027 28.1002L23.0367 27.9359L23.0367 27.9357Z" fill="#F6D660" stroke="#434A54" stroke-width="0.05875"/>
<path d="M23.6433 27.7732L24.2041 28.2842L23.8466 28.6417L23.3322 28.0837L23.6433 27.7732Z" fill="#F6D660" stroke="#434A54" stroke-width="0.05875"/>
<path d="M23.4576 28.4585L23.7585 28.7354L23.4171 29.0796L23.1366 28.7818L23.4576 28.4585Z" fill="#F6D660" stroke="#434A54" stroke-width="0.05875"/>
<path d="M24.3365 27.5739L24.6374 27.8509L24.296 28.195L24.0155 27.8973L24.3365 27.5739Z" fill="#F6D660" stroke="#434A54" stroke-width="0.05875"/>
<path d="M22.8639 28.6367L22.9634 28.537L23.0361 28.6092L23.1088 28.536L23.0344 28.4621L23.1365 28.3599L23.2106 28.4335L23.2834 28.3602L23.209 28.2863L23.311 28.1839L23.4786 28.3507C23.5048 28.3766 23.5012 28.4143 23.4774 28.4383L23.12 28.7982C23.0961 28.8223 23.0542 28.8253 23.0299 28.8013L22.8638 28.6369L22.8639 28.6367Z" fill="#F6D660" stroke="#434A54" stroke-width="0.05875"/>
<path d="M23.7418 27.7521L23.8413 27.6524L23.9141 27.7246L23.9867 27.6514L23.9123 27.5775L24.0144 27.4754L24.0885 27.549L24.1613 27.4757L24.0869 27.4018L24.1889 27.2994L24.3565 27.4661C24.3827 27.4921 24.3792 27.5298 24.3554 27.5537L23.9979 27.9137C23.974 27.9378 23.9321 27.9407 23.9078 27.9168L23.7418 27.7524L23.7418 27.7521Z" fill="#F6D660" stroke="#434A54" stroke-width="0.05875"/>
<path d="M23.6235 28.133C23.569 28.0833 23.6432 28.0075 23.6952 28.0608L23.8233 28.188L23.7516 28.2602L23.6235 28.133Z" fill="#434A54"/>
<path d="M23.3684 28.7621C23.3176 28.7121 23.3861 28.6411 23.4368 28.6932L23.5357 28.7914L23.4674 28.8603L23.3684 28.7621Z" fill="#434A54"/>
<path d="M24.2492 27.8748C24.1984 27.8249 24.267 27.7539 24.3176 27.8059L24.4166 27.9042L24.3482 27.9731L24.2492 27.8748Z" fill="#434A54"/>
<path d="M27.7188 18.4788C27.7346 17.8301 28.1949 17.6765 28.1982 17.6743C28.2015 17.6721 28.6954 17.8397 28.6938 18.4848L27.7188 18.4788Z" fill="#F6D660" stroke="#434A54" stroke-width="0.05875"/>
<path d="M27.3223 17.6869L27.2422 18.4324L27.7287 18.4334C27.7334 17.8166 28.1956 17.714 28.2068 17.7163C28.2173 17.7157 28.6755 17.8527 28.6877 18.4334H29.1755L29.0874 17.6822L27.3223 17.6867L27.3223 17.6869Z" fill="#F6D660" stroke="#434A54" stroke-width="0.05875"/>
<path d="M27.2091 18.4354H29.2002C29.2422 18.4354 29.2765 18.4768 29.2765 18.5275C29.2765 18.5781 29.2422 18.6193 29.2002 18.6193H27.2091C27.1671 18.6193 27.1328 18.5781 27.1328 18.5275C27.1328 18.4768 27.1671 18.4354 27.2091 18.4354Z" fill="#F6D660" stroke="#434A54" stroke-width="0.05875"/>
<path d="M27.9326 18.4318C27.9348 18.0426 28.1984 17.9324 28.1998 17.9326C28.1999 17.9326 28.475 18.0462 28.4772 18.4318H27.9326Z" fill="#F6D660" stroke="#434A54" stroke-width="0.05875"/>
<path d="M27.2509 17.3767H29.1597C29.1999 17.3767 29.2328 17.4141 29.2328 17.4595C29.2328 17.505 29.1999 17.5423 29.1597 17.5423H27.2509C27.2107 17.5423 27.1777 17.5052 27.1777 17.4595C27.1777 17.4141 27.2107 17.3767 27.2509 17.3767Z" fill="#F6D660" stroke="#434A54" stroke-width="0.05875"/>
<path d="M27.2916 17.5435H29.1173C29.1558 17.5435 29.1873 17.5807 29.1873 17.6262C29.1873 17.6718 29.1558 17.709 29.1173 17.709H27.2916C27.2532 17.709 27.2217 17.6718 27.2217 17.6262C27.2217 17.5807 27.2532 17.5435 27.2916 17.5435Z" fill="#F6D660" stroke="#434A54" stroke-width="0.05875"/>
<path d="M27.881 16.2992L28.0252 16.2994V16.4018H28.1304V16.2971L28.278 16.2976V16.4019H28.3835V16.2972H28.5313L28.531 16.5336C28.531 16.5707 28.5012 16.5947 28.4666 16.5947H27.9483C27.9134 16.5947 27.8813 16.5668 27.8812 16.5329L27.8809 16.2993L27.881 16.2992Z" fill="#F6D660" stroke="#434A54" stroke-width="0.05875"/>
<path d="M28.4242 16.6153L28.4568 17.3733L27.9512 17.3714L27.9846 16.6133L28.4242 16.6153Z" fill="#F6D660" stroke="#434A54" stroke-width="0.05875"/>
<path d="M27.8072 16.9666L27.8226 17.3752L27.3379 17.3754L27.3516 16.9666L27.8072 16.9666Z" fill="#F6D660" stroke="#434A54" stroke-width="0.05875"/>
<path d="M29.0533 16.9666L29.0687 17.3752L28.584 17.3754L28.5977 16.9666L29.0533 16.9666Z" fill="#F6D660" stroke="#434A54" stroke-width="0.05875"/>
<path d="M27.2619 16.6705L27.4028 16.6708V16.7733H27.5059V16.6685L27.6504 16.6689V16.7734H27.7537V16.6685L27.8982 16.6687L27.898 16.9051C27.898 16.942 27.8688 16.9661 27.835 16.9661H27.3278C27.2938 16.9661 27.2622 16.9384 27.2621 16.9043L27.2617 16.6706L27.2619 16.6705Z" fill="#F6D660" stroke="#434A54" stroke-width="0.05875"/>
<path d="M28.509 16.6705L28.6499 16.6708V16.7733H28.753V16.6685L28.8975 16.6689V16.7734H29.0008V16.6685L29.1453 16.6687L29.1451 16.9051C29.1451 16.942 29.1159 16.9661 29.0821 16.9661H28.5748C28.5409 16.9661 28.5092 16.9384 28.5091 16.9043L28.5088 16.6706L28.509 16.6705Z" fill="#F6D660" stroke="#434A54" stroke-width="0.05875"/>
<path d="M28.1553 16.855C28.1522 16.7813 28.2583 16.7805 28.2571 16.855V17.0355H28.1553L28.1553 16.855Z" fill="#434A54"/>
<path d="M27.5283 17.117C27.528 17.0458 27.6267 17.0444 27.6254 17.117V17.2565H27.5284L27.5283 17.117Z" fill="#434A54"/>
<path d="M28.7793 17.117C28.7789 17.0458 28.8776 17.0444 28.8764 17.117V17.2565H28.7793L28.7793 17.117Z" fill="#434A54"/>
<path d="M34.0283 18.4788C34.0125 17.8301 33.5522 17.6765 33.5489 17.6743C33.5455 17.6721 33.0517 17.8397 33.0533 18.4848L34.0283 18.4788Z" fill="#F6D660" stroke="#434A54" stroke-width="0.05875"/>
<path d="M34.4248 17.6869L34.5049 18.4324L34.0184 18.4334C34.0137 17.8166 33.5514 17.714 33.5402 17.7163C33.5298 17.7157 33.0715 17.8527 33.0593 18.4334H32.5716L32.6597 17.6822L34.4247 17.6867L34.4248 17.6869Z" fill="#F6D660" stroke="#434A54" stroke-width="0.05875"/>
<path d="M34.538 18.4354H32.5468C32.5049 18.4354 32.4706 18.4768 32.4706 18.5275C32.4706 18.5781 32.5049 18.6193 32.5468 18.6193H34.538C34.58 18.6193 34.6143 18.5781 34.6143 18.5275C34.6143 18.4768 34.58 18.4354 34.538 18.4354Z" fill="#F6D660" stroke="#434A54" stroke-width="0.05875"/>
<path d="M33.8145 18.4318C33.8123 18.0426 33.5487 17.9324 33.5473 17.9326C33.5472 17.9326 33.2721 18.0462 33.2699 18.4318H33.8145Z" fill="#F6D660" stroke="#434A54" stroke-width="0.05875"/>
<path d="M34.4962 17.3767H32.5874C32.5472 17.3767 32.5142 17.4141 32.5142 17.4595C32.5142 17.505 32.5472 17.5423 32.5874 17.5423H34.4962C34.5364 17.5423 34.5693 17.5052 34.5693 17.4595C34.5693 17.4141 34.5364 17.3767 34.4962 17.3767Z" fill="#F6D660" stroke="#434A54" stroke-width="0.05875"/>
<path d="M34.4554 17.5435H32.6297C32.5913 17.5435 32.5598 17.5807 32.5598 17.6262C32.5598 17.6718 32.5913 17.709 32.6297 17.709H34.4554C34.4939 17.709 34.5254 17.6718 34.5254 17.6262C34.5254 17.5807 34.4939 17.5435 34.4554 17.5435Z" fill="#F6D660" stroke="#434A54" stroke-width="0.05875"/>
<path d="M33.866 16.2992L33.7219 16.2994V16.4018H33.6167V16.2971L33.4691 16.2976V16.4019H33.3636V16.2972H33.2158L33.216 16.5336C33.216 16.5707 33.2459 16.5947 33.2805 16.5947H33.7988C33.8336 16.5947 33.8658 16.5668 33.8659 16.5329L33.8662 16.2993L33.866 16.2992Z" fill="#F6D660" stroke="#434A54" stroke-width="0.05875"/>
<path d="M33.3229 16.6153L33.2903 17.3733L33.7959 17.3714L33.7624 16.6133L33.3229 16.6153Z" fill="#F6D660" stroke="#434A54" stroke-width="0.05875"/>
<path d="M33.9399 16.9666L33.9244 17.3752L34.4092 17.3754L34.3955 16.9666L33.9399 16.9666Z" fill="#F6D660" stroke="#434A54" stroke-width="0.05875"/>
<path d="M32.6938 16.9666L32.6783 17.3752L33.1631 17.3754L33.1494 16.9666L32.6938 16.9666Z" fill="#F6D660" stroke="#434A54" stroke-width="0.05875"/>
<path d="M34.4852 16.6705L34.3442 16.6708V16.7733H34.2411V16.6685L34.0967 16.6689V16.7734H33.9934V16.6685L33.8488 16.6687L33.8491 16.9051C33.8491 16.942 33.8783 16.9661 33.9121 16.9661H34.4193C34.4533 16.9661 34.4849 16.9384 34.485 16.9043L34.4854 16.6706L34.4852 16.6705Z" fill="#F6D660" stroke="#434A54" stroke-width="0.05875"/>
<path d="M33.2381 16.6705L33.0972 16.6708V16.7733H32.9941V16.6685L32.8496 16.6689V16.7734H32.7463V16.6685L32.6018 16.6687L32.602 16.9051C32.602 16.942 32.6312 16.9661 32.665 16.9661H33.1722C33.2062 16.9661 33.2378 16.9384 33.2379 16.9043L33.2383 16.6706L33.2381 16.6705Z" fill="#F6D660" stroke="#434A54" stroke-width="0.05875"/>
<path d="M33.5917 16.855C33.5948 16.7813 33.4887 16.7805 33.49 16.855V17.0355H33.5917L33.5917 16.855Z" fill="#434A54"/>
<path d="M34.2187 17.117C34.2191 17.0458 34.1204 17.0444 34.1217 17.117V17.2565H34.2187L34.2187 17.117Z" fill="#434A54"/>
<path d="M32.9678 17.117C32.9681 17.0458 32.8694 17.0444 32.8707 17.117V17.2565H32.9677L32.9678 17.117Z" fill="#434A54"/>
<path d="M34.0283 23.9214C34.0125 23.2727 33.5522 23.1191 33.5489 23.1168C33.5455 23.1147 33.0517 23.2822 33.0533 23.9274L34.0283 23.9214Z" fill="#F6D660" stroke="#434A54" stroke-width="0.05875"/>
<path d="M34.4248 23.1295L34.5049 23.875L34.0184 23.876C34.0137 23.2592 33.5514 23.1566 33.5402 23.1589C33.5298 23.1583 33.0715 23.2953 33.0593 23.876H32.5716L32.6597 23.1248L34.4247 23.1293L34.4248 23.1295Z" fill="#F6D660" stroke="#434A54" stroke-width="0.05875"/>
<path d="M34.538 23.8779H32.5468C32.5049 23.8779 32.4706 23.9194 32.4706 23.9701C32.4706 24.0206 32.5049 24.0619 32.5468 24.0619H34.538C34.58 24.0619 34.6143 24.0206 34.6143 23.9701C34.6143 23.9194 34.58 23.8779 34.538 23.8779Z" fill="#F6D660" stroke="#434A54" stroke-width="0.05875"/>
<path d="M33.8145 23.8744C33.8123 23.4852 33.5487 23.375 33.5473 23.3752C33.5472 23.3752 33.2721 23.4888 33.2699 23.8744H33.8145Z" fill="#F6D660" stroke="#434A54" stroke-width="0.05875"/>
<path d="M34.4962 22.8193H32.5874C32.5472 22.8193 32.5142 22.8567 32.5142 22.9021C32.5142 22.9476 32.5472 22.9849 32.5874 22.9849H34.4962C34.5364 22.9849 34.5693 22.9478 34.5693 22.9021C34.5693 22.8567 34.5364 22.8193 34.4962 22.8193Z" fill="#F6D660" stroke="#434A54" stroke-width="0.05875"/>
<path d="M34.4554 22.9861H32.6297C32.5913 22.9861 32.5598 23.0233 32.5598 23.0688C32.5598 23.1144 32.5913 23.1516 32.6297 23.1516H34.4554C34.4939 23.1516 34.5254 23.1144 34.5254 23.0688C34.5254 23.0233 34.4939 22.9861 34.4554 22.9861Z" fill="#F6D660" stroke="#434A54" stroke-width="0.05875"/>
<path d="M33.866 21.7418L33.7219 21.742V21.8444H33.6167V21.7397L33.4691 21.7402V21.8445H33.3636V21.7398H33.2158L33.216 21.9762C33.216 22.0133 33.2459 22.0373 33.2805 22.0373H33.7988C33.8336 22.0373 33.8658 22.0094 33.8659 21.9755L33.8662 21.7419L33.866 21.7418Z" fill="#F6D660" stroke="#434A54" stroke-width="0.05875"/>
<path d="M33.3229 22.0579L33.2903 22.8159L33.7959 22.814L33.7624 22.0559L33.3229 22.0579Z" fill="#F6D660" stroke="#434A54" stroke-width="0.05875"/>
<path d="M33.9399 22.4092L33.9244 22.8178L34.4092 22.818L34.3955 22.4092L33.9399 22.4092Z" fill="#F6D660" stroke="#434A54" stroke-width="0.05875"/>
<path d="M32.6938 22.4092L32.6783 22.8178L33.1631 22.818L33.1494 22.4092L32.6938 22.4092Z" fill="#F6D660" stroke="#434A54" stroke-width="0.05875"/>
<path d="M34.4852 22.1131L34.3442 22.1134V22.2159H34.2411V22.1111L34.0967 22.1115V22.216H33.9934V22.1111L33.8488 22.1113L33.8491 22.3477C33.8491 22.3846 33.8783 22.4087 33.9121 22.4087H34.4193C34.4533 22.4087 34.4849 22.381 34.485 22.3469L34.4854 22.1132L34.4852 22.1131Z" fill="#F6D660" stroke="#434A54" stroke-width="0.05875"/>
<path d="M33.2381 22.1131L33.0972 22.1134V22.2159H32.9941V22.1111L32.8496 22.1115V22.216H32.7463V22.1111L32.6018 22.1113L32.602 22.3477C32.602 22.3846 32.6312 22.4087 32.665 22.4087H33.1722C33.2062 22.4087 33.2378 22.381 33.2379 22.3469L33.2383 22.1132L33.2381 22.1131Z" fill="#F6D660" stroke="#434A54" stroke-width="0.05875"/>
<path d="M33.5917 22.2976C33.5948 22.2239 33.4887 22.2231 33.49 22.2976V22.4781H33.5917L33.5917 22.2976Z" fill="#434A54"/>
<path d="M34.2187 22.5596C34.2191 22.4884 34.1204 22.4869 34.1217 22.5596V22.6991H34.2187L34.2187 22.5596Z" fill="#434A54"/>
<path d="M32.9678 22.5596C32.9681 22.4884 32.8694 22.4869 32.8707 22.5596V22.6991H32.9677L32.9678 22.5596Z" fill="#434A54"/>
<path d="M31.9056 29.5865C32.3548 29.1182 32.1394 28.6833 32.1387 28.6794C32.1379 28.6755 31.671 28.4431 31.2144 28.8989L31.9056 29.5865Z" fill="#F6D660" stroke="#434A54" stroke-width="0.05875"/>
<path d="M32.7479 29.3103L32.2753 29.8924L31.9318 29.548C32.3661 29.1101 32.1132 28.7097 32.1037 28.7034C32.0968 28.6956 31.6767 28.4669 31.256 28.8674L30.9123 28.5213L31.5075 28.0545L32.748 29.3102L32.7479 29.3103Z" fill="#F6D660" stroke="#434A54" stroke-width="0.05875"/>
<path d="M32.2959 29.9177L30.8929 28.5048C30.8633 28.475 30.8097 28.4799 30.7738 28.5156C30.7379 28.5513 30.7328 28.6047 30.7624 28.6344L32.1653 30.0473C32.1949 30.0771 32.2484 30.0724 32.2842 30.0368C32.3202 30.0011 32.3254 29.9475 32.2959 29.9177Z" fill="#F6D660" stroke="#434A54" stroke-width="0.05875"/>
<path d="M31.7884 29.4017C32.063 29.1259 31.9554 28.8612 31.9543 28.8604C31.9543 28.8603 31.6798 28.7451 31.4047 29.0153L31.7884 29.4017Z" fill="#F6D660" stroke="#434A54" stroke-width="0.05875"/>
<path d="M33.0178 29.1418L31.6728 27.7873C31.6445 27.7588 31.5947 27.7618 31.5625 27.7938C31.5303 27.8258 31.527 27.8755 31.5553 27.904L32.9003 29.2585C32.9286 29.287 32.9782 29.2843 33.0106 29.2521C33.0428 29.2201 33.0461 29.1703 33.0178 29.1418Z" fill="#F6D660" stroke="#434A54" stroke-width="0.05875"/>
<path d="M32.8706 29.231L31.5842 27.9355C31.5571 27.9082 31.5085 27.9121 31.4763 27.9441C31.4439 27.9763 31.4397 28.0248 31.4668 28.0521L32.7532 29.3476C32.7803 29.3749 32.8289 29.3711 32.8612 29.3389C32.8935 29.3069 32.8977 29.2583 32.8706 29.231Z" fill="#F6D660" stroke="#434A54" stroke-width="0.05875"/>
<path d="M33.3383 27.9357L33.2365 27.8336L33.1639 27.9057L33.0898 27.8311L33.164 27.7573L33.0597 27.6529L32.9857 27.7263L32.9114 27.6515L32.9856 27.5777L32.8815 27.4729L32.714 27.6396C32.6876 27.6657 32.6916 27.7039 32.716 27.7284L33.0812 28.0962C33.1057 28.1209 33.1481 28.1241 33.1723 28.1002L33.3383 27.9359L33.3383 27.9357Z" fill="#F6D660" stroke="#434A54" stroke-width="0.05875"/>
<path d="M32.7317 27.7732L32.1709 28.2842L32.5284 28.6417L33.0428 28.0837L32.7317 27.7732Z" fill="#F6D660" stroke="#434A54" stroke-width="0.05875"/>
<path d="M32.9174 28.4585L32.6165 28.7354L32.9579 29.0796L33.2384 28.7818L32.9174 28.4585Z" fill="#F6D660" stroke="#434A54" stroke-width="0.05875"/>
<path d="M32.0385 27.5739L31.7376 27.8509L32.079 28.195L32.3595 27.8973L32.0385 27.5739Z" fill="#F6D660" stroke="#434A54" stroke-width="0.05875"/>
<path d="M33.5111 28.6367L33.4116 28.5369L33.3389 28.6092L33.2662 28.536L33.3406 28.4621L33.2385 28.3599L33.1644 28.4335L33.0916 28.3602L33.166 28.2863L33.064 28.1839L32.8964 28.3506C32.8702 28.3766 32.8738 28.4143 32.8976 28.4383L33.255 28.7982C33.2789 28.8223 33.3208 28.8253 33.3451 28.8013L33.5112 28.6369L33.5111 28.6367Z" fill="#F6D660" stroke="#434A54" stroke-width="0.05875"/>
<path d="M32.6332 27.7521L32.5337 27.6524L32.4609 27.7246L32.3883 27.6514L32.4627 27.5775L32.3606 27.4754L32.2865 27.549L32.2137 27.4757L32.2881 27.4018L32.1861 27.2994L32.0185 27.4661C31.9923 27.4921 31.9958 27.5298 32.0196 27.5537L32.3771 27.9137C32.401 27.9378 32.4429 27.9407 32.4672 27.9168L32.6332 27.7524L32.6332 27.7521Z" fill="#F6D660" stroke="#434A54" stroke-width="0.05875"/>
<path d="M32.7515 28.133C32.806 28.0833 32.7318 28.0074 32.6798 28.0608L32.5517 28.188L32.6234 28.2602L32.7515 28.133Z" fill="#434A54"/>
<path d="M33.0066 28.7621C33.0574 28.7121 32.9889 28.6411 32.9382 28.6932L32.8393 28.7914L32.9076 28.8603L33.0066 28.7621Z" fill="#434A54"/>
<path d="M32.1258 27.8748C32.1766 27.8249 32.108 27.7539 32.0574 27.8059L31.9584 27.9042L32.0268 27.9731L32.1258 27.8748Z" fill="#434A54"/>
<path d="M27.335 24.116V24.1166C27.335 24.3765 27.4348 24.6133 27.5949 24.7851C27.7553 24.9575 27.9762 25.0645 28.2179 25.0645C28.4608 25.0645 28.6813 24.9582 28.841 24.7866C29.0006 24.6152 29.0997 24.3786 29.0997 24.1176V22.8524L27.3382 22.851L27.335 24.116Z" fill="#4758A9"/>
<path d="M27.7391 23.5068C27.8355 23.5068 27.9137 23.4286 27.9137 23.3322C27.9137 23.2357 27.8355 23.1576 27.7391 23.1576C27.6426 23.1576 27.5645 23.2357 27.5645 23.3322C27.5645 23.4286 27.6426 23.5068 27.7391 23.5068Z" fill="#F5F7FA"/>
<path d="M28.7166 23.5076C28.813 23.5076 28.8912 23.4294 28.8912 23.333C28.8912 23.2366 28.813 23.1584 28.7166 23.1584C28.6202 23.1584 28.542 23.2366 28.542 23.333C28.542 23.4294 28.6202 23.5076 28.7166 23.5076Z" fill="#F5F7FA"/>
<path d="M28.2264 23.9768C28.3228 23.9768 28.401 23.8986 28.401 23.8022C28.401 23.7058 28.3228 23.6276 28.2264 23.6276C28.1299 23.6276 28.0518 23.7058 28.0518 23.8022C28.0518 23.8986 28.1299 23.9768 28.2264 23.9768Z" fill="#F5F7FA"/>
<path d="M27.7391 24.4681C27.8355 24.4681 27.9137 24.3899 27.9137 24.2935C27.9137 24.197 27.8355 24.1189 27.7391 24.1189C27.6426 24.1189 27.5645 24.197 27.5645 24.2935C27.5645 24.3899 27.6426 24.4681 27.7391 24.4681Z" fill="#F5F7FA"/>
<path d="M28.7156 24.4668C28.8121 24.4668 28.8902 24.3886 28.8902 24.2922C28.8902 24.1957 28.8121 24.1176 28.7156 24.1176C28.6192 24.1176 28.541 24.1957 28.541 24.2922C28.541 24.3886 28.6192 24.4668 28.7156 24.4668Z" fill="#F5F7FA"/>
<path d="M27.335 21.0591V21.0597C27.335 21.3196 27.4348 21.5564 27.5949 21.7282C27.7553 21.9006 27.9762 22.0076 28.2179 22.0076C28.4608 22.0076 28.6813 21.9013 28.841 21.7297C29.0006 21.5583 29.0997 21.3217 29.0997 21.0608V19.7955L27.3382 19.7941L27.335 21.0591Z" fill="#4758A9"/>
<path d="M27.7391 20.4499C27.8355 20.4499 27.9137 20.3717 27.9137 20.2753C27.9137 20.1789 27.8355 20.1007 27.7391 20.1007C27.6426 20.1007 27.5645 20.1789 27.5645 20.2753C27.5645 20.3717 27.6426 20.4499 27.7391 20.4499Z" fill="#F5F7FA"/>
<path d="M28.7166 20.4507C28.813 20.4507 28.8912 20.3726 28.8912 20.2761C28.8912 20.1797 28.813 20.1015 28.7166 20.1015C28.6202 20.1015 28.542 20.1797 28.542 20.2761C28.542 20.3726 28.6202 20.4507 28.7166 20.4507Z" fill="#F5F7FA"/>
<path d="M28.2264 20.9199C28.3228 20.9199 28.401 20.8417 28.401 20.7453C28.401 20.6489 28.3228 20.5707 28.2264 20.5707C28.1299 20.5707 28.0518 20.6489 28.0518 20.7453C28.0518 20.8417 28.1299 20.9199 28.2264 20.9199Z" fill="#F5F7FA"/>
<path d="M27.7391 21.4112C27.8355 21.4112 27.9137 21.333 27.9137 21.2366C27.9137 21.1401 27.8355 21.062 27.7391 21.062C27.6426 21.062 27.5645 21.1401 27.5645 21.2366C27.5645 21.333 27.6426 21.4112 27.7391 21.4112Z" fill="#F5F7FA"/>
<path d="M28.7156 21.4099C28.8121 21.4099 28.8902 21.3317 28.8902 21.2353C28.8902 21.1388 28.8121 21.0607 28.7156 21.0607C28.6192 21.0607 28.541 21.1388 28.541 21.2353C28.541 21.3317 28.6192 21.4099 28.7156 21.4099Z" fill="#F5F7FA"/>
<path d="M24.8907 24.116V24.1166C24.8907 24.3765 24.9905 24.6133 25.1506 24.7851C25.311 24.9574 25.5319 25.0645 25.7736 25.0645C26.0165 25.0645 26.237 24.9582 26.3966 24.7865C26.5562 24.6152 26.6554 24.3786 26.6554 24.1176V22.8524L24.8938 22.8509L24.8907 24.116Z" fill="#4758A9"/>
<path d="M25.2947 23.5068C25.3912 23.5068 25.4693 23.4286 25.4693 23.3322C25.4693 23.2357 25.3912 23.1575 25.2947 23.1575C25.1983 23.1575 25.1201 23.2357 25.1201 23.3322C25.1201 23.4286 25.1983 23.5068 25.2947 23.5068Z" fill="#F5F7FA"/>
<path d="M26.2723 23.5076C26.3687 23.5076 26.4469 23.4294 26.4469 23.333C26.4469 23.2366 26.3687 23.1584 26.2723 23.1584C26.1758 23.1584 26.0977 23.2366 26.0977 23.333C26.0977 23.4294 26.1758 23.5076 26.2723 23.5076Z" fill="#F5F7FA"/>
<path d="M25.782 23.9768C25.8785 23.9768 25.9566 23.8986 25.9566 23.8022C25.9566 23.7057 25.8785 23.6276 25.782 23.6276C25.6856 23.6276 25.6074 23.7057 25.6074 23.8022C25.6074 23.8986 25.6856 23.9768 25.782 23.9768Z" fill="#F5F7FA"/>
<path d="M25.2947 24.468C25.3912 24.468 25.4693 24.3899 25.4693 24.2934C25.4693 24.197 25.3912 24.1188 25.2947 24.1188C25.1983 24.1188 25.1201 24.197 25.1201 24.2934C25.1201 24.3899 25.1983 24.468 25.2947 24.468Z" fill="#F5F7FA"/>
<path d="M26.2713 24.4667C26.3677 24.4667 26.4459 24.3886 26.4459 24.2921C26.4459 24.1957 26.3677 24.1175 26.2713 24.1175C26.1749 24.1175 26.0967 24.1957 26.0967 24.2921C26.0967 24.3886 26.1749 24.4667 26.2713 24.4667Z" fill="#F5F7FA"/>
<path d="M29.7725 24.116V24.1166C29.7725 24.3765 29.8723 24.6133 30.0324 24.7851C30.1928 24.9574 30.4137 25.0645 30.6554 25.0645C30.8983 25.0645 31.1188 24.9582 31.2785 24.7865C31.4381 24.6152 31.5372 24.3786 31.5372 24.1176V22.8524L29.7757 22.8509L29.7725 24.116Z" fill="#4758A9"/>
<path d="M30.1766 23.5068C30.273 23.5068 30.3512 23.4286 30.3512 23.3322C30.3512 23.2357 30.273 23.1575 30.1766 23.1575C30.0801 23.1575 30.002 23.2357 30.002 23.3322C30.002 23.4286 30.0801 23.5068 30.1766 23.5068Z" fill="#F5F7FA"/>
<path d="M31.1541 23.5076C31.2505 23.5076 31.3287 23.4294 31.3287 23.333C31.3287 23.2366 31.2505 23.1584 31.1541 23.1584C31.0577 23.1584 30.9795 23.2366 30.9795 23.333C30.9795 23.4294 31.0577 23.5076 31.1541 23.5076Z" fill="#F5F7FA"/>
<path d="M30.6639 23.9768C30.7603 23.9768 30.8385 23.8986 30.8385 23.8022C30.8385 23.7057 30.7603 23.6276 30.6639 23.6276C30.5674 23.6276 30.4893 23.7057 30.4893 23.8022C30.4893 23.8986 30.5674 23.9768 30.6639 23.9768Z" fill="#F5F7FA"/>
<path d="M30.1766 24.468C30.273 24.468 30.3512 24.3899 30.3512 24.2934C30.3512 24.197 30.273 24.1188 30.1766 24.1188C30.0801 24.1188 30.002 24.197 30.002 24.2934C30.002 24.3899 30.0801 24.468 30.1766 24.468Z" fill="#F5F7FA"/>
<path d="M31.1531 24.4667C31.2496 24.4667 31.3277 24.3886 31.3277 24.2921C31.3277 24.1957 31.2496 24.1175 31.1531 24.1175C31.0567 24.1175 30.9785 24.1957 30.9785 24.2921C30.9785 24.3886 31.0567 24.4667 31.1531 24.4667Z" fill="#F5F7FA"/>
<path d="M27.335 27.1456V27.1462C27.335 27.4061 27.4348 27.6429 27.5949 27.8147C27.7553 27.987 27.9762 28.0941 28.2179 28.0941C28.4608 28.0941 28.6813 27.9878 28.841 27.8162C29.0006 27.6448 29.0997 27.4082 29.0997 27.1472V25.882L27.3382 25.8805L27.335 27.1456Z" fill="#4758A9"/>
<path d="M27.7391 26.5364C27.8355 26.5364 27.9137 26.4582 27.9137 26.3618C27.9137 26.2654 27.8355 26.1872 27.7391 26.1872C27.6426 26.1872 27.5645 26.2654 27.5645 26.3618C27.5645 26.4582 27.6426 26.5364 27.7391 26.5364Z" fill="#F5F7FA"/>
<path d="M28.7166 26.5372C28.813 26.5372 28.8912 26.4591 28.8912 26.3626C28.8912 26.2662 28.813 26.188 28.7166 26.188C28.6202 26.188 28.542 26.2662 28.542 26.3626C28.542 26.4591 28.6202 26.5372 28.7166 26.5372Z" fill="#F5F7FA"/>
<path d="M28.2264 27.0064C28.3228 27.0064 28.401 26.9282 28.401 26.8318C28.401 26.7353 28.3228 26.6572 28.2264 26.6572C28.1299 26.6572 28.0518 26.7353 28.0518 26.8318C28.0518 26.9282 28.1299 27.0064 28.2264 27.0064Z" fill="#F5F7FA"/>
<path d="M27.7391 27.4976C27.8355 27.4976 27.9137 27.4195 27.9137 27.323C27.9137 27.2266 27.8355 27.1484 27.7391 27.1484C27.6426 27.1484 27.5645 27.2266 27.5645 27.323C27.5645 27.4195 27.6426 27.4976 27.7391 27.4976Z" fill="#F5F7FA"/>
<path d="M28.7156 27.4964C28.8121 27.4964 28.8902 27.4182 28.8902 27.3217C28.8902 27.2253 28.8121 27.1471 28.7156 27.1471C28.6192 27.1471 28.541 27.2253 28.541 27.3217C28.541 27.4182 28.6192 27.4964 28.7156 27.4964Z" fill="#F5F7FA"/>
</svg>
